<svg xmlns="http://www.w3.org/2000/svg" width="158.057" height="166.219" viewBox="0 0 158.057 166.219"><g transform="translate(170 -4.391) rotate(90)" fill="none"><path d="M72.522,27.9a17,17,0,0,1,29.957,0l59.08,110.057A17,17,0,0,1,146.58,163H28.42a17,17,0,0,1-14.978-25.041Z" stroke="none"/><path d="M 87.49998474121094 18.9429931640625 C 81.61400604248047 18.9429931640625 75.72802734375 21.92948913574219 72.52166748046875 27.9024658203125 L 13.44197082519531 137.9595031738281 C 7.362472534179688 149.2847442626953 15.56645202636719 163 28.42030334472656 163 L 146.5796661376953 163 C 159.4335632324219 163 167.6375274658203 149.2847442626953 161.5579986572266 137.9595031738281 L 102.4783020019531 27.9024658203125 C 99.27194213867188 21.92948913574219 93.38596343994141 18.9429931640625 87.49998474121094 18.9429931640625 M 87.49996948242188 11.9429931640625 C 96.35505676269531 11.9429931640625 104.4576644897461 16.78968811035156 108.6458587646484 24.59165954589844 L 167.7255554199219 134.6486968994141 C 171.7562713623047 142.1573638916016 171.5509185791016 151.0064392089844 167.1761932373047 158.3200531005859 C 162.8014678955078 165.6336669921875 155.1018371582031 170 146.5796661376953 170 L 28.42030334472656 170 C 19.89816284179688 170 12.19856262207031 165.6336669921875 7.823806762695312 158.3200836181641 C 3.449081420898438 151.0064697265625 3.243698120117188 142.1573638916016 7.2744140625 134.6486968994141 L 66.35411071777344 24.59165954589844 C 70.54230499267578 16.78968811035156 78.64492034912109 11.9429931640625 87.49996948242188 11.9429931640625 Z" stroke="none" fill="#00e08b"/></g></svg>